# xmcd
#
# Track frame offsets: 
#        150
#        10815
#        22047
#        35046
#        48232
#        68101
#        81964
#        103471
#        125810
#        139231
#        153978
#        171506
#        198213
#
# Disc length: 2858 seconds
#
# Revision: 0
# Processed by: cddbd v1.5.2PL0 Copyright (c) Steve Scherf et al.
# Submitted via: ExactAudioCopy v0.95a5
#
DISCID=bb0b280d
DTITLE=Various Artist - #1 R&B Hits
DYEAR=2008
DGENRE=R&B
TTITLE0=Lloyd Price - Stagger Lee
TTITLE1=Brook Benton - So Many Ways
TTITLE2=Mary Wells - Two Lovers
TTITLE3=Sam and Dave - Soul Man
TTITLE4=Ben E. King - Supernatural Thing Part 1
TTITLE5=The Miracles - The Tears Of A Clown
TTITLE6=The Chi-Lites - Have You Seen Her?
TTITLE7=Billy Paul - Me and Mrs. Jones (Live)
TTITLE8=The Spinners - Games People Play (Live)
TTITLE9=George McCrae - Rock Your Baby
TTITLE10=The Brothers Johnson - I'll Be Good To You (Live)
TTITLE11=Chic - Le Freak (Live)
TTITLE12=Candi Staton - Young Hearts Run Free
EXTD=
EXTT0=
EXTT1=
EXTT2=
EXTT3=
EXTT4=
EXTT5=
EXTT6=
EXTT7=
EXTT8=
EXTT9=
EXTT10=
EXTT11=
EXTT12=
PLAYORDER=
